<mxfile host="app.diagrams.net" modified="2021-08-05T09:42:40.244Z" agent="5.0 (Windows NT 10.0; WOW64) AppleWebKit/537.36 (KHTML, like Gecko) Chrome/86.0.4240.198 Safari/537.36" etag="JINGHnSDyK3_MvzFcVg7" version="14.9.3" type="github">
  <diagram id="Sks090ZgVj4ynbTDPOFt" name="Page-1">
    <mxGraphModel dx="1422" dy="756" grid="1" gridSize="10" guides="1" tooltips="1" connect="1" arrows="1" fold="1" page="1" pageScale="1" pageWidth="827" pageHeight="1169" math="0" shadow="0">
      <root>
        <mxCell id="0" />
        <mxCell id="1" parent="0" />
        <mxCell id="fW0T9XhQYLA311SRqR8o-40" style="edgeStyle=none;rounded=0;orthogonalLoop=1;jettySize=auto;html=1;dashed=1;strokeColor=#B3B3B3;" parent="1" source="UZHCAdEQnzmCH5ZDE6f8-36" edge="1">
          <mxGeometry relative="1" as="geometry">
            <mxPoint x="415" y="220" as="targetPoint" />
            <Array as="points">
              <mxPoint x="415" y="270" />
            </Array>
          </mxGeometry>
        </mxCell>
        <mxCell id="UZHCAdEQnzmCH5ZDE6f8-11" value="" style="group;" parent="1" vertex="1" connectable="0">
          <mxGeometry x="80" y="210" width="90" height="110" as="geometry" />
        </mxCell>
        <mxCell id="UZHCAdEQnzmCH5ZDE6f8-1" value="" style="rounded=0;whiteSpace=wrap;html=1;fillColor=#d5e8d4;strokeColor=#82b366;" parent="UZHCAdEQnzmCH5ZDE6f8-11" vertex="1">
          <mxGeometry width="90" height="110" as="geometry" />
        </mxCell>
        <mxCell id="UZHCAdEQnzmCH5ZDE6f8-2" value="task：A" style="rounded=0;whiteSpace=wrap;html=1;fontColor=#333333;strokeWidth=1;strokeColor=none;" parent="UZHCAdEQnzmCH5ZDE6f8-11" vertex="1">
          <mxGeometry x="4.090909090909092" y="24.0625" width="81.81818181818183" height="20.625" as="geometry" />
        </mxCell>
        <mxCell id="UZHCAdEQnzmCH5ZDE6f8-3" value="Task" style="text;html=1;resizable=0;autosize=1;align=center;verticalAlign=middle;points=[];fillColor=none;strokeColor=none;rounded=0;" parent="UZHCAdEQnzmCH5ZDE6f8-11" vertex="1">
          <mxGeometry x="23.71545454545455" y="0.002500000000000391" width="40" height="20" as="geometry" />
        </mxCell>
        <mxCell id="UZHCAdEQnzmCH5ZDE6f8-7" value="task：B" style="rounded=0;whiteSpace=wrap;html=1;fontColor=#333333;strokeColor=none;" parent="UZHCAdEQnzmCH5ZDE6f8-11" vertex="1">
          <mxGeometry x="4.090909090909092" y="55" width="81.81818181818183" height="20.625" as="geometry" />
        </mxCell>
        <mxCell id="UZHCAdEQnzmCH5ZDE6f8-8" value="..." style="rounded=0;whiteSpace=wrap;html=1;fontColor=#333333;strokeColor=none;" parent="UZHCAdEQnzmCH5ZDE6f8-11" vertex="1">
          <mxGeometry x="4.090909090909092" y="82.5" width="81.81818181818183" height="20.625" as="geometry" />
        </mxCell>
        <mxCell id="UZHCAdEQnzmCH5ZDE6f8-96" style="edgeStyle=elbowEdgeStyle;rounded=0;orthogonalLoop=1;jettySize=auto;html=1;entryX=0.5;entryY=0;entryDx=0;entryDy=0;dashed=1;fontSize=6;fontColor=#CCCCCC;strokeColor=#CCCCCC;" parent="1" source="UZHCAdEQnzmCH5ZDE6f8-13" target="UZHCAdEQnzmCH5ZDE6f8-33" edge="1">
          <mxGeometry relative="1" as="geometry" />
        </mxCell>
        <mxCell id="UZHCAdEQnzmCH5ZDE6f8-13" value="&lt;font style=&quot;font-size: 14px&quot;&gt;Start&lt;/font&gt;" style="ellipse;whiteSpace=wrap;html=1;fillColor=#d5e8d4;strokeColor=#82b366;" parent="1" vertex="1">
          <mxGeometry x="375" y="70" width="80" height="50" as="geometry" />
        </mxCell>
        <mxCell id="UZHCAdEQnzmCH5ZDE6f8-25" value="" style="group;fontColor=#CCCCCC;" parent="1" vertex="1" connectable="0">
          <mxGeometry x="80" y="370" width="90" height="110" as="geometry" />
        </mxCell>
        <mxCell id="UZHCAdEQnzmCH5ZDE6f8-26" value="" style="rounded=0;whiteSpace=wrap;html=1;fillColor=#d5e8d4;strokeColor=#82b366;" parent="UZHCAdEQnzmCH5ZDE6f8-25" vertex="1">
          <mxGeometry width="90" height="110" as="geometry" />
        </mxCell>
        <mxCell id="UZHCAdEQnzmCH5ZDE6f8-27" value="superagent" style="rounded=0;whiteSpace=wrap;html=1;fontColor=#333333;strokeWidth=1;fillColor=#CCCCCC;strokeColor=none;" parent="UZHCAdEQnzmCH5ZDE6f8-25" vertex="1">
          <mxGeometry x="4.090909090909092" y="26.0625" width="81.81818181818183" height="20.625" as="geometry" />
        </mxCell>
        <mxCell id="UZHCAdEQnzmCH5ZDE6f8-28" value="Modules" style="text;html=1;resizable=0;autosize=1;align=center;verticalAlign=middle;points=[];fillColor=none;strokeColor=none;rounded=0;" parent="UZHCAdEQnzmCH5ZDE6f8-25" vertex="1">
          <mxGeometry x="13.286883116883118" y="1.0025000000000004" width="60" height="20" as="geometry" />
        </mxCell>
        <mxCell id="UZHCAdEQnzmCH5ZDE6f8-29" value="cheerio" style="rounded=0;whiteSpace=wrap;html=1;fontColor=#333333;fillColor=#CCCCCC;strokeColor=none;" parent="UZHCAdEQnzmCH5ZDE6f8-25" vertex="1">
          <mxGeometry x="4.090909090909092" y="55" width="81.81818181818183" height="20.625" as="geometry" />
        </mxCell>
        <mxCell id="UZHCAdEQnzmCH5ZDE6f8-30" value="..." style="rounded=0;whiteSpace=wrap;html=1;fontColor=#333333;strokeColor=none;" parent="UZHCAdEQnzmCH5ZDE6f8-25" vertex="1">
          <mxGeometry x="4.090909090909092" y="82.5" width="81.81818181818183" height="20.625" as="geometry" />
        </mxCell>
        <mxCell id="UZHCAdEQnzmCH5ZDE6f8-32" value="" style="swimlane;startSize=0;dashed=1;fontSize=6;strokeWidth=1;fillColor=#B3B3B3;strokeColor=#B3B3B3;" parent="1" vertex="1">
          <mxGeometry x="300" y="170" width="230" height="360" as="geometry">
            <mxRectangle x="340" y="140" width="50" height="40" as="alternateBounds" />
          </mxGeometry>
        </mxCell>
        <mxCell id="UZHCAdEQnzmCH5ZDE6f8-33" value="Master" style="whiteSpace=wrap;html=1;dashed=1;fontSize=6;strokeColor=#6c8ebf;strokeWidth=1;fillColor=#dae8fc;" parent="UZHCAdEQnzmCH5ZDE6f8-32" vertex="1">
          <mxGeometry x="10" y="20" width="210" height="31" as="geometry" />
        </mxCell>
        <mxCell id="UZHCAdEQnzmCH5ZDE6f8-76" value="" style="rounded=0;whiteSpace=wrap;html=1;dashed=1;fontSize=6;fontColor=#333333;strokeColor=#666666;strokeWidth=1;fillColor=#f5f5f5;verticalAlign=middle;" parent="UZHCAdEQnzmCH5ZDE6f8-32" vertex="1">
          <mxGeometry x="10" y="170" width="210" height="170" as="geometry" />
        </mxCell>
        <mxCell id="UZHCAdEQnzmCH5ZDE6f8-34" value="threads 1" style="whiteSpace=wrap;html=1;dashed=1;fontSize=6;strokeColor=#b85450;strokeWidth=1;fillColor=#f8cecc;horizontal=0;verticalAlign=middle;" parent="UZHCAdEQnzmCH5ZDE6f8-32" vertex="1">
          <mxGeometry x="20" y="190" width="30" height="130" as="geometry" />
        </mxCell>
        <mxCell id="UZHCAdEQnzmCH5ZDE6f8-35" value="threads 2" style="whiteSpace=wrap;html=1;dashed=1;fontSize=6;strokeColor=#b85450;strokeWidth=1;fillColor=#f8cecc;horizontal=0;" parent="UZHCAdEQnzmCH5ZDE6f8-32" vertex="1">
          <mxGeometry x="60" y="190" width="30" height="130" as="geometry" />
        </mxCell>
        <mxCell id="UZHCAdEQnzmCH5ZDE6f8-36" value="threads 3" style="whiteSpace=wrap;html=1;dashed=1;fontSize=6;strokeColor=#b85450;strokeWidth=1;fillColor=#f8cecc;horizontal=0;" parent="UZHCAdEQnzmCH5ZDE6f8-32" vertex="1">
          <mxGeometry x="100" y="190" width="30" height="130" as="geometry" />
        </mxCell>
        <mxCell id="UZHCAdEQnzmCH5ZDE6f8-37" value="threads 4" style="whiteSpace=wrap;html=1;dashed=1;fontSize=6;strokeColor=#b85450;strokeWidth=1;fillColor=#f8cecc;horizontal=0;" parent="UZHCAdEQnzmCH5ZDE6f8-32" vertex="1">
          <mxGeometry x="140" y="190" width="30" height="130" as="geometry" />
        </mxCell>
        <mxCell id="UZHCAdEQnzmCH5ZDE6f8-40" value="..." style="whiteSpace=wrap;html=1;dashed=1;fontSize=6;strokeColor=#b85450;strokeWidth=1;fillColor=#f8cecc;" parent="UZHCAdEQnzmCH5ZDE6f8-32" vertex="1">
          <mxGeometry x="180" y="190" width="30" height="130" as="geometry" />
        </mxCell>
        <mxCell id="UZHCAdEQnzmCH5ZDE6f8-63" style="edgeStyle=elbowEdgeStyle;rounded=0;orthogonalLoop=1;jettySize=auto;elbow=vertical;html=1;dashed=1;fontSize=6;strokeColor=#CCCCCC;" parent="UZHCAdEQnzmCH5ZDE6f8-32" edge="1">
          <mxGeometry relative="1" as="geometry">
            <mxPoint x="115" y="51.000000000000114" as="sourcePoint" />
            <mxPoint x="115" y="190" as="targetPoint" />
          </mxGeometry>
        </mxCell>
        <mxCell id="UZHCAdEQnzmCH5ZDE6f8-65" style="edgeStyle=elbowEdgeStyle;rounded=0;orthogonalLoop=1;jettySize=auto;elbow=vertical;html=1;dashed=1;fontSize=6;strokeColor=#CCCCCC;" parent="UZHCAdEQnzmCH5ZDE6f8-32" edge="1">
          <mxGeometry relative="1" as="geometry">
            <mxPoint x="115" y="60" as="sourcePoint" />
            <mxPoint x="35" y="190" as="targetPoint" />
            <Array as="points">
              <mxPoint x="80" y="140" />
            </Array>
          </mxGeometry>
        </mxCell>
        <mxCell id="UZHCAdEQnzmCH5ZDE6f8-66" style="edgeStyle=elbowEdgeStyle;rounded=0;orthogonalLoop=1;jettySize=auto;elbow=vertical;html=1;dashed=1;fontSize=6;strokeColor=#CCCCCC;" parent="UZHCAdEQnzmCH5ZDE6f8-32" edge="1">
          <mxGeometry relative="1" as="geometry">
            <mxPoint x="115" y="51" as="sourcePoint" />
            <mxPoint x="75" y="190" as="targetPoint" />
            <Array as="points">
              <mxPoint x="90" y="140" />
            </Array>
          </mxGeometry>
        </mxCell>
        <mxCell id="UZHCAdEQnzmCH5ZDE6f8-62" style="edgeStyle=elbowEdgeStyle;rounded=0;orthogonalLoop=1;jettySize=auto;elbow=vertical;html=1;entryX=0.5;entryY=0;entryDx=0;entryDy=0;dashed=1;fontSize=6;strokeColor=#CCCCCC;" parent="UZHCAdEQnzmCH5ZDE6f8-32" target="UZHCAdEQnzmCH5ZDE6f8-37" edge="1">
          <mxGeometry relative="1" as="geometry">
            <mxPoint x="115" y="51" as="sourcePoint" />
            <mxPoint x="155" y="210" as="targetPoint" />
            <Array as="points">
              <mxPoint x="130" y="140" />
            </Array>
          </mxGeometry>
        </mxCell>
        <mxCell id="UZHCAdEQnzmCH5ZDE6f8-61" style="edgeStyle=elbowEdgeStyle;rounded=0;orthogonalLoop=1;jettySize=auto;elbow=vertical;html=1;dashed=1;fontSize=6;strokeColor=#CCCCCC;startArrow=none;" parent="UZHCAdEQnzmCH5ZDE6f8-32" source="fW0T9XhQYLA311SRqR8o-48" edge="1">
          <mxGeometry relative="1" as="geometry">
            <mxPoint x="115" y="100" as="sourcePoint" />
            <mxPoint x="195" y="190" as="targetPoint" />
            <Array as="points">
              <mxPoint x="180" y="140" />
            </Array>
          </mxGeometry>
        </mxCell>
        <mxCell id="fW0T9XhQYLA311SRqR8o-24" value="schedule" style="ellipse;whiteSpace=wrap;html=1;dashed=1;dashPattern=1 1;fillColor=#ffe6cc;strokeColor=#d79b00;" parent="UZHCAdEQnzmCH5ZDE6f8-32" vertex="1">
          <mxGeometry x="80" y="70" width="70" height="35" as="geometry" />
        </mxCell>
        <mxCell id="fW0T9XhQYLA311SRqR8o-48" value="postMessage" style="rounded=0;whiteSpace=wrap;html=1;dashed=1;dashPattern=1 1;fillColor=#fff2cc;strokeColor=#d6b656;" parent="UZHCAdEQnzmCH5ZDE6f8-32" vertex="1">
          <mxGeometry x="70" y="130" width="90" height="20" as="geometry" />
        </mxCell>
        <mxCell id="UZHCAdEQnzmCH5ZDE6f8-72" style="edgeStyle=elbowEdgeStyle;rounded=0;orthogonalLoop=1;jettySize=auto;html=1;dashed=1;fontSize=6;fontColor=#CCCCCC;strokeColor=#CCCCCC;entryX=0;entryY=0.5;entryDx=0;entryDy=0;" parent="1" source="UZHCAdEQnzmCH5ZDE6f8-1" target="UZHCAdEQnzmCH5ZDE6f8-76" edge="1">
          <mxGeometry relative="1" as="geometry">
            <mxPoint x="210" y="330" as="targetPoint" />
            <Array as="points">
              <mxPoint x="250" y="340" />
              <mxPoint x="240" y="330" />
            </Array>
          </mxGeometry>
        </mxCell>
        <mxCell id="UZHCAdEQnzmCH5ZDE6f8-78" style="edgeStyle=elbowEdgeStyle;rounded=0;orthogonalLoop=1;jettySize=auto;html=1;dashed=1;fontSize=6;fontColor=#CCCCCC;strokeColor=#CCCCCC;entryX=0;entryY=0.5;entryDx=0;entryDy=0;startArrow=none;" parent="1" source="fW0T9XhQYLA311SRqR8o-18" target="UZHCAdEQnzmCH5ZDE6f8-76" edge="1">
          <mxGeometry relative="1" as="geometry">
            <mxPoint x="260" y="380" as="targetPoint" />
            <Array as="points">
              <mxPoint x="250" y="420" />
            </Array>
          </mxGeometry>
        </mxCell>
        <mxCell id="UZHCAdEQnzmCH5ZDE6f8-85" style="edgeStyle=elbowEdgeStyle;rounded=0;orthogonalLoop=1;jettySize=auto;html=1;dashed=1;fontSize=6;fontColor=#CCCCCC;strokeColor=#CCCCCC;" parent="1" source="UZHCAdEQnzmCH5ZDE6f8-33" edge="1">
          <mxGeometry relative="1" as="geometry">
            <mxPoint x="650" y="265" as="targetPoint" />
            <Array as="points">
              <mxPoint x="560" y="250" />
              <mxPoint x="590" y="240" />
            </Array>
          </mxGeometry>
        </mxCell>
        <mxCell id="UZHCAdEQnzmCH5ZDE6f8-87" style="edgeStyle=elbowEdgeStyle;rounded=0;orthogonalLoop=1;jettySize=auto;html=1;entryX=1;entryY=0.5;entryDx=0;entryDy=0;dashed=1;fontSize=6;fontColor=#CCCCCC;strokeColor=#CCCCCC;" parent="1" source="UZHCAdEQnzmCH5ZDE6f8-80" target="UZHCAdEQnzmCH5ZDE6f8-33" edge="1">
          <mxGeometry relative="1" as="geometry">
            <Array as="points">
              <mxPoint x="560" y="265" />
              <mxPoint x="590" y="265" />
              <mxPoint x="585" y="265" />
              <mxPoint x="585" y="260" />
              <mxPoint x="585" y="265" />
              <mxPoint x="585" y="270" />
            </Array>
          </mxGeometry>
        </mxCell>
        <mxCell id="UZHCAdEQnzmCH5ZDE6f8-88" value="" style="group;" parent="1" vertex="1" connectable="0">
          <mxGeometry x="650" y="380" width="90" height="110" as="geometry" />
        </mxCell>
        <mxCell id="UZHCAdEQnzmCH5ZDE6f8-89" value="" style="rounded=0;whiteSpace=wrap;html=1;fillColor=#d5e8d4;strokeColor=#82b366;" parent="UZHCAdEQnzmCH5ZDE6f8-88" vertex="1">
          <mxGeometry width="90" height="90" as="geometry" />
        </mxCell>
        <mxCell id="UZHCAdEQnzmCH5ZDE6f8-90" value="logs" style="rounded=0;whiteSpace=wrap;html=1;fontColor=#333333;strokeWidth=1;strokeColor=none;" parent="UZHCAdEQnzmCH5ZDE6f8-88" vertex="1">
          <mxGeometry x="4.090909090909092" y="25.0625" width="81.81818181818183" height="20.625" as="geometry" />
        </mxCell>
        <mxCell id="UZHCAdEQnzmCH5ZDE6f8-91" value="Utils" style="text;html=1;resizable=0;autosize=1;align=center;verticalAlign=middle;points=[];fillColor=none;strokeColor=none;rounded=0;" parent="UZHCAdEQnzmCH5ZDE6f8-88" vertex="1">
          <mxGeometry x="23.71545454545455" y="1.0025000000000004" width="40" height="20" as="geometry" />
        </mxCell>
        <mxCell id="UZHCAdEQnzmCH5ZDE6f8-92" value="pipe" style="rounded=0;whiteSpace=wrap;html=1;fontColor=#333333;strokeColor=none;" parent="UZHCAdEQnzmCH5ZDE6f8-88" vertex="1">
          <mxGeometry x="4.090909090909092" y="55" width="81.81818181818183" height="20.625" as="geometry" />
        </mxCell>
        <mxCell id="UZHCAdEQnzmCH5ZDE6f8-95" style="edgeStyle=elbowEdgeStyle;rounded=0;orthogonalLoop=1;jettySize=auto;html=1;dashed=1;fontSize=6;fontColor=#CCCCCC;entryX=1;entryY=0.5;entryDx=0;entryDy=0;strokeColor=#B3B3B3;" parent="1" source="UZHCAdEQnzmCH5ZDE6f8-89" target="UZHCAdEQnzmCH5ZDE6f8-33" edge="1">
          <mxGeometry relative="1" as="geometry">
            <mxPoint x="580" y="415" as="targetPoint" />
            <Array as="points">
              <mxPoint x="560" y="240" />
              <mxPoint x="590" y="300" />
            </Array>
          </mxGeometry>
        </mxCell>
        <mxCell id="lq33D_D79C-fZDbV6GPW-2" style="edgeStyle=orthogonalEdgeStyle;rounded=0;orthogonalLoop=1;jettySize=auto;html=1;strokeColor=#B3B3B3;dashed=1;" parent="1" source="UZHCAdEQnzmCH5ZDE6f8-33" target="UZHCAdEQnzmCH5ZDE6f8-89" edge="1">
          <mxGeometry relative="1" as="geometry">
            <mxPoint x="590" y="430" as="targetPoint" />
            <Array as="points">
              <mxPoint x="560" y="205" />
              <mxPoint x="560" y="425" />
            </Array>
          </mxGeometry>
        </mxCell>
        <mxCell id="fW0T9XhQYLA311SRqR8o-1" style="edgeStyle=orthogonalEdgeStyle;rounded=0;orthogonalLoop=1;jettySize=auto;html=1;dashed=1;strokeColor=#B3B3B3;" parent="1" source="UZHCAdEQnzmCH5ZDE6f8-89" edge="1">
          <mxGeometry relative="1" as="geometry">
            <mxPoint x="660" y="540" as="targetPoint" />
          </mxGeometry>
        </mxCell>
        <mxCell id="fW0T9XhQYLA311SRqR8o-2" style="edgeStyle=orthogonalEdgeStyle;rounded=0;orthogonalLoop=1;jettySize=auto;html=1;dashed=1;strokeColor=#B3B3B3;" parent="1" source="UZHCAdEQnzmCH5ZDE6f8-89" edge="1">
          <mxGeometry relative="1" as="geometry">
            <mxPoint x="740" y="540" as="targetPoint" />
          </mxGeometry>
        </mxCell>
        <mxCell id="fW0T9XhQYLA311SRqR8o-3" value="" style="shape=note;whiteSpace=wrap;html=1;backgroundOutline=1;darkOpacity=0.05;size=16;fillColor=#dae8fc;strokeColor=#6c8ebf;" parent="1" vertex="1">
          <mxGeometry x="640" y="545" width="40" height="50" as="geometry" />
        </mxCell>
        <mxCell id="fW0T9XhQYLA311SRqR8o-5" value="" style="shape=note;whiteSpace=wrap;html=1;backgroundOutline=1;darkOpacity=0.05;size=16;fillColor=#dae8fc;strokeColor=#6c8ebf;" parent="1" vertex="1">
          <mxGeometry x="720" y="545" width="40" height="50" as="geometry" />
        </mxCell>
        <mxCell id="fW0T9XhQYLA311SRqR8o-6" value="csv | json" style="text;html=1;resizable=0;autosize=1;align=center;verticalAlign=middle;points=[];fillColor=none;strokeColor=none;rounded=0;" parent="1" vertex="1">
          <mxGeometry x="625" y="595" width="70" height="20" as="geometry" />
        </mxCell>
        <mxCell id="fW0T9XhQYLA311SRqR8o-7" value="log" style="text;html=1;resizable=0;autosize=1;align=center;verticalAlign=middle;points=[];fillColor=none;strokeColor=none;rounded=0;" parent="1" vertex="1">
          <mxGeometry x="725" y="595" width="30" height="20" as="geometry" />
        </mxCell>
        <mxCell id="UZHCAdEQnzmCH5ZDE6f8-80" value="" style="rounded=0;whiteSpace=wrap;html=1;fillColor=#d5e8d4;strokeColor=#82b366;" parent="1" vertex="1">
          <mxGeometry x="650" y="210" width="90" height="110" as="geometry" />
        </mxCell>
        <mxCell id="UZHCAdEQnzmCH5ZDE6f8-81" value="taskName" style="rounded=0;whiteSpace=wrap;html=1;fontColor=#333333;strokeWidth=1;strokeColor=none;" parent="1" vertex="1">
          <mxGeometry x="654.0909090909091" y="234.0625" width="81.81818181818183" height="20.625" as="geometry" />
        </mxCell>
        <mxCell id="UZHCAdEQnzmCH5ZDE6f8-82" value="LinkQueue" style="text;html=1;resizable=0;autosize=1;align=center;verticalAlign=middle;points=[];fillColor=none;strokeColor=none;rounded=0;" parent="1" vertex="1">
          <mxGeometry x="661.7154545454546" y="210.0025" width="70" height="20" as="geometry" />
        </mxCell>
        <mxCell id="UZHCAdEQnzmCH5ZDE6f8-83" value="data" style="rounded=0;whiteSpace=wrap;html=1;fontColor=#333333;strokeColor=none;" parent="1" vertex="1">
          <mxGeometry x="654.0909090909091" y="265" width="81.81818181818183" height="20.625" as="geometry" />
        </mxCell>
        <mxCell id="UZHCAdEQnzmCH5ZDE6f8-84" value="..." style="rounded=0;whiteSpace=wrap;html=1;fontColor=#333333;strokeColor=none;" parent="1" vertex="1">
          <mxGeometry x="654.0909090909091" y="292.5" width="81.81818181818183" height="20.625" as="geometry" />
        </mxCell>
        <mxCell id="fW0T9XhQYLA311SRqR8o-17" value="add&lt;br&gt;&lt;br&gt;pop&lt;br&gt;&lt;br&gt;size" style="rounded=0;whiteSpace=wrap;html=1;fillColor=#fff2cc;strokeColor=#d6b656;dashed=1;dashPattern=1 1;" parent="1" vertex="1">
          <mxGeometry x="589" y="225" width="36" height="80" as="geometry" />
        </mxCell>
        <mxCell id="fW0T9XhQYLA311SRqR8o-18" value="require" style="ellipse;whiteSpace=wrap;html=1;aspect=fixed;dashed=1;dashPattern=1 1;fillColor=#fff2cc;strokeColor=#d6b656;" parent="1" vertex="1">
          <mxGeometry x="190" y="415" width="50" height="50" as="geometry" />
        </mxCell>
        <mxCell id="fW0T9XhQYLA311SRqR8o-19" value="" style="edgeStyle=elbowEdgeStyle;rounded=0;orthogonalLoop=1;jettySize=auto;html=1;dashed=1;fontSize=6;fontColor=#CCCCCC;strokeColor=#CCCCCC;entryX=0;entryY=0.5;entryDx=0;entryDy=0;endArrow=none;" parent="1" source="UZHCAdEQnzmCH5ZDE6f8-26" target="fW0T9XhQYLA311SRqR8o-18" edge="1">
          <mxGeometry relative="1" as="geometry">
            <mxPoint x="280" y="349.4999999999999" as="targetPoint" />
            <mxPoint x="170" y="425" as="sourcePoint" />
          </mxGeometry>
        </mxCell>
        <mxCell id="fW0T9XhQYLA311SRqR8o-51" style="edgeStyle=none;rounded=0;orthogonalLoop=1;jettySize=auto;html=1;exitX=0.5;exitY=1;exitDx=0;exitDy=0;dashed=1;strokeColor=#B3B3B3;" parent="1" source="UZHCAdEQnzmCH5ZDE6f8-32" target="UZHCAdEQnzmCH5ZDE6f8-32" edge="1">
          <mxGeometry relative="1" as="geometry" />
        </mxCell>
      </root>
    </mxGraphModel>
  </diagram>
</mxfile>
